/* XPM */
static char *aa60debd0c74494885e8cd73d772fb7eRatCVEk5f3KTxkGb[] = {
/* columns rows colors chars-per-pixel */
"64 64 5 1 ",
"  c gray77",
". c #C6C6C6",
"X c gray79",
"o c #FBFBFB",
"O c #FEFEFE",
/* pixels */
"OOooooooooooooooooooooooooooooooooooooooooooooooooooooooooooooOO",
"OX.XXXXXXXXXXXXXXXXXXXXXXXXXXXXXXXXXXXXXXXXXXXXXXXXXXXXXXXXXX.Xo",
"o....  .. .  .. .  .. .  .. .  .. .  .. .  .. .  .. .  .. . . Xo",
"oX............................................................Xo",
"oX .......................................................... Xo",
"oX............................................................Xo",
"oX........................................................... Xo",
"oX............................................................Xo",
"oX........................................................... Xo",
"oX ...........................................................Xo",
"oX .......................................................... Xo",
"oX............................................................Xo",
"oX........................................................... Xo",
"oX ...........................................................Xo",
"oX........................................................... Xo",
"oX ...........................................................Xo",
"oX .......................................................... Xo",
"oX............................................................Xo",
"oX........................................................... Xo",
"oX ...........................................................Xo",
"oX........................................................... Xo",
"oX ...........................................................Xo",
"oX .......................................................... Xo",
"oX............................................................Xo",
"oX........................................................... Xo",
"oX ...........................................................Xo",
"oX........................................................... Xo",
"oX ...........................................................Xo",
"oX .......................................................... Xo",
"oX............................................................Xo",
"oX........................................................... Xo",
"oX ...........................................................Xo",
"oX........................................................... Xo",
"oX ...........................................................Xo",
"oX .......................................................... Xo",
"oX............................................................Xo",
"oX........................................................... Xo",
"oX ...........................................................Xo",
"oX........................................................... Xo",
"oX ...........................................................Xo",
"oX .......................................................... Xo",
"oX............................................................Xo",
"oX........................................................... Xo",
"oX ...........................................................Xo",
"oX........................................................... Xo",
"oX ...........................................................Xo",
"oX .......................................................... Xo",
"oX............................................................Xo",
"oX........................................................... Xo",
"oX ...........................................................Xo",
"oX........................................................... Xo",
"oX ...........................................................Xo",
"oX .......................................................... Xo",
"oX............................................................Xo",
"oX........................................................... Xo",
"oX ...........................................................Xo",
"oX........................................................... Xo",
"oX ...........................................................Xo",
"oX .......................................................... Xo",
"oX............................................................Xo",
"oX........................................................... Xo",
"o. . ..  . ..  . ..  . ..  . ..  . ..  . ..  . ..  . ..  .... .o",
"OX.XXXXXXXXXXXXXXXXXXXXXXXXXXXXXXXXXXXXXXXXXXXXXXXXXXXXXXXXXX.XO",
"OOooooooooooooooooooooooooooooooooooooooooooooooooooooooooooooOO"
};
