/* XPM */
static char *_1b5b84ebdb04fe4b40d609f73273cf8JMa0ISIEyCnMHhvq[] = {
/* columns rows colors chars-per-pixel */
"64 64 9 1 ",
"  c #010101",
". c #090909",
"X c gray5",
"o c #0E0E0E",
"O c gray10",
"+ c #EFEFEF",
"@ c gray94",
"# c gray95",
"$ c #FEFEFE",
/* pixels */
"$@@@++@++@@@@@@@@@@++@@@@@@@@@@@@@@@@@@@@@@@@@@@@@@@@@@@@@@@@@@$",
"@Ooooooooo.ooooooooooo.ooooo.ooooo.ooooo.ooooo.ooooo.ooooo.oo.O@",
"+.                                                            .@",
"+o                                                            o@",
"+o                                                            o@",
"+o                                                            o@",
"+o                                                            o@",
"+.                                                            o@",
"@.                                                            o+",
"+o                                                            o@",
"+o                                                            o+",
"+o                                                            o+",
"+.                                                            o+",
"+o                                                            o+",
"+o                                                            o+",
"+o                                                            o+",
"+o                                                            o+",
"+o                                                            o+",
"+o                                                            o+",
"+.                                                            o+",
"+o                                                            o+",
"+o                                                            o+",
"+o                                                            o+",
"@.                                                            o+",
"+o                                                            o+",
"+o                                                            o+",
"@.                                                            o+",
"+o                                                            o+",
"+o                                                            o+",
"+o                                                            o+",
"+.                                                            o+",
"+o                                                            o+",
"@.                                                            o+",
"+o                                                            o+",
"+o                                                            o+",
"+o                                                            o+",
"+.                                                            o+",
"+o                                                            o+",
"+o                                                            o+",
"+o                                                            o+",
"+o                                                            o+",
"+o                                                            o+",
"+o                                                            o+",
"+.                                                            o+",
"+o                                                            o+",
"+o                                                            o+",
"+o                                                            o+",
"@.                                                            o+",
"+o                                                            o+",
"+o                                                            o+",
"@.                                                            o+",
"+o                                                            o+",
"+o                                                            o+",
"+o                                                            o+",
"+.                                                            o+",
"+o                                                            o+",
"@.                                                            o+",
"+o                                                            o+",
"+o                                                            o+",
"+o                                                            o+",
"+o                                                            o+",
"+.                                                            .+",
"@O.oooooo.ooooooooooo.ooooo.ooooo.ooooo.ooooo.ooooo.ooooooooooO@",
"$+++@@@@@@@++@@@@@@@@@@@@@@@@@@@@@@@@@@@@@@@@@@@@@@@@+++++@++@@$"
};
