/* XPM */
static char *_0c457b421db4c71e056fc3b1358e1dfHSxpuds7UkBb6a3i[] = {
/* columns rows colors chars-per-pixel */
"64 64 57 1 ",
"  c #27361F",
". c #29361F",
"X c #2C381F",
"o c #27172D",
"O c #2B172D",
"+ c #27182C",
"@ c #2C192D",
"# c #301B2D",
"$ c #2E1631",
"% c #2C1A30",
"& c #2C3622",
"* c #2C3921",
"= c #303821",
"- c #4E2E36",
"; c #4E2D3A",
": c #522D36",
"> c #512D3A",
", c #4C3036",
"< c #4F3038",
"1 c #674D3D",
"2 c #6C4D3E",
"3 c #714E3F",
"4 c #6F503E",
"5 c #70503F",
"6 c #6C4D41",
"7 c #6F4C40",
"8 c #6E4E42",
"9 c #6C4B44",
"0 c #6E4B44",
"q c #6F4B47",
"w c #6F4C44",
"e c #704C40",
"r c #724E41",
"t c #714D43",
"y c #724B44",
"u c #734F45",
"i c #734F46",
"p c #6E5042",
"a c #725041",
"s c #725043",
"d c #735046",
"f c #9A825B",
"g c #99845A",
"h c #9B815D",
"j c #9D815C",
"k c #9F835C",
"l c #9B845D",
"z c #9D845F",
"x c #A0815B",
"c c #A0835D",
"v c #A0845D",
"b c #A0865F",
"n c #A2865E",
"m c #A5875D",
"M c #9E8361",
"N c #9F8462",
"B c #A08560",
/* pixels */
"#zmbbmbmbmmbmb#+obbbmmbbmbmbbb#+#bbbmbmmmbmbbb#+#zbbmbmbmbbbmz#+",
"kstutp3ttt2tpdf@hss3tttt3tsttdf@jss5t38tt2ttssg@kt5t2stt3tt8ssj@",
"5882tt8s8st83tt@4t2ttt88tt2t4tt@5t8ttstttstt5tt@3ttttttttttt4t4O",
"tt3t4t2t2t2st8t@03ttp3t5585tt8tO828t82t282t2t8t@855t88525848tt2O",
"83tt25p2t8st8st@t88yts352ttt2tpO83ps5283t8t8tst@822u3ttt8tst2t8+",
"8tt88y3tt5ttt81@1u23t38tt52tstt@0u288t2tttt3tt1@1d2tt38tt28t3t0@",
"O1>;;*9>>8w>12$+#9>>82:t2>:d>1$o@1>>;*8>:u8>14O+@9>>t8:58::w>4O+",
"@@%#X*+++@#@%#@@@%@@+=++o@$@o#@@O#@@X*+++%@@#@@@O@@@@*oo+$@@@#oo",
"cbzkbc=o#kbkbbvvcczbjjX*@jbzbvbbbbbcbj=+#jbczbcvbccbvvX&#zbbcbbc",
"stsstdg#jtttttstsssss5z*vt3stttttttttug@jsstsstttstssszXcs5stttt",
"383tt3y@2u8t5t388t2t3t3+4tst5tt55t3tt3t@2u2t4ttt38835tto2tps5t3t",
"ttt8ts8$832tt8ttsttt3t8@83t5t28tt8tttt8$833ttt8tttst22t@8tt2ttpt",
"ptt2tt2@8t8u2s28t8t38tt@884utttt82u88t2o88t32t28p3t88s8@882us8t2",
"2ut3281%1u28s888td23884@82u2t82t2stt8t2O0u2tt88u8t2tp81@22uu23t2",
">:2>>9OoO1>>2u:3:<9:14$+O>8;32>->:w>>8Oo@1>:23:8::3>94$oO>y<88>>",
"o@$@@#@$O#@$@@Oo$@$@@@$@@O@@@@+&++++o@oooOoOOoo$$@@@#@$@@@@O+=++",
"#cbjbbvvkbbvjg#+#vbjbbbczbckkk=+oo$oOOO$OOOOo$oo@jbczbcbvvbbjjX+",
"csssttsttsttsdz@fts5ttstssttt5f&$;>>;>;;>;>;>;o$jtsttstssttsstg@",
"tput5t3ts84t5t2@2t8t3p3t4tstt88@;;>;>>>>>>>>>>;$2s8t83t522t3ttt+",
"8t2tt2ttt8ttt2t@t32tttt8tt8t2s8+>;>>>;>;>;>;>>>Ot52tst8ttsts338@",
"t28428t3t8t88tt@8t8u8ttts8t218tO>>>;>;>>;>>;>>;O888tttt88ttt2t2+",
"w380dt28ttt3t32$1u2tp322tu2s3t0O;>>>>>>;;;;>>;;O1u2tp388s32tt88@",
"@9X*<t8::uw:14@+O1><u2:X1>:3>9#oO;  O>;$O>;$->@+O8;>2>:&2>>0>8O+",
"@@$*&#+++%%@#@+@$#@$o@+&*@%@o#+@$oO&.OoooOOO@@@@@#o$@@X+O@@@@#+@",
"kbbbbf#+@vcczvvvbbbcbc@+#kbMvbvvkjbbkk@o@jbcbcczbccbbj*+@cccbbbc",
"spttstj@jtstsststtststj@jsstsstsuytttuc@jtt3stsstststtf@jts4ttst",
"s28t5t2@2u2st38t4t3t8t2@3s2tt8382t885t2+2u8ttt5t3ttp3sy@2u0t383t",
"tt8sttt@t328ptttttpt3t2@852t8stt8yttttt@832tt8t8t4tt238@832t8st8",
"5t588t8O8ts88t3888u2tsu@885dt53tt83tpt2@8t3t2tt838t88s8@2t8t83tt",
"88s82t2@22wtt880tt2tt82@28ttttttt8ut2t2@2288t8808t2t881@1u288338",
">>1>>1#+&1>:88:t::y>12$oO;0>0t,&;>2:>1$+&0>:82:8::3>04$oO9;>:3-X",
".@#$@#+$@&@@@@+@+@O@#@@@@@O@o@++X+@$@#@@@*%%@@@o$@@@##$@o#@@$++&",
"@cccvcbbbbbzkf#o@jbzbzjczcbckk#+@zbjbzbvzbcbjf#+#ccjzbcbvvbccf#O",
"zsu5sttsttstudk@jttttssssstswuj@zs4tutstsssttdz@jtstsstttssstdj+",
"sts22t2tt82t4u2@2s5s3tts3t8t4u2@3s0st23t8ttt5t2+2s2s832t2t823d8+",
"832ttsst3tt8t83@832ttp8tt8st28tO832stst83tppt5t@t52ttstttstst28O",
"82u8258288t88tt@83tu2t3ttttt2u2@038u52pt88tttst@8t2u3t3ttttt2t2+",
"8u328yttt3t3885+1u32tu885223tt0@2u288t2tttt3tt1@1u28t38t3t2ttt0@",
"@1>>>*3>>u8>85@oO2>;88:8u::0>1OOO0>;;*8-:dd:14Oo@9;>t8>22>>2>t++",
"@$@@**o++@@@#@$o@@@O@=+o@@@O@#+@@@@@X*@++@$@@@@@O#@@+=+@o@@@@#+@",
"bcbbcv=OokcbcbkzcbzbccXX@jbbbczbbbvvbj=+#jvkjvbvvvbbjbX&#vbBbvvv",
"ttst3tg@ktttttssttsstszXcs53ttsstssttsg@jsstsstssstssslXcds5ttts",
"ts28t8uo2u8ut3tttt28st3+2spttt5t3p3tttt@2t8s8t2t2t2t5tt@8t8tt85t",
"ttts3s8Ot318tst4tsst28t@82ttstt8ttt8tt8O832tstttstts28t@828t8st2",
"t2t8tt2@888u8u2t3tt8ts8@882stttp88888t8@8t2uttt828t88t8@884ustt2",
"8tt38t1O1u238t80832ds22Ottt2t32tttt38t2O1u3u88t9tt238t1@88u423t3",
">:8>>8$o@p>>32:8::y>15O+@<y>22:,:>8>>1Oo@1>>02:3::y:82OOo;y>82>>",
"o@$@@#@@@@$@O$O+%@$@#@O@@$+@$@+&+@@@@#@O@$@@@@+@$oO@#@$@@o@%@&++",
"#vcczbcbccbvjj#+okcbcbjvzvvvkk&+@vjccbbzbvbbkk#o#jbcjzbvvvbvzjX@",
"btsttssssttsssc@ktttttssssstu3k&jttssttstttswtb@zsttssstssts3tg@",
"5ts22stt2s284t8+2u8tt2tt5t2t3t8@2tps3tt42t2t4u2@2d2spt3t2s2888t+",
"tt8ttt8ttttsttt@8328tsstt2ts2t3@232tt8t88stt88t#852ttt8ttttst38@",
"t5u28tt3t8pt2tt+888u2388tpt32d8O2t8tt1ttttst8s2@8t3uttt28tst3t8+",
"8529u38u3ttts82@1u23tt8p388s2t2@t5t2uutt2t32tt1@1u2882t8t32t2t0@",
"+8X*,9t:>8t>15O+@8>>83:X1>>t>0@o+p.X>2>:>dt>82O+@0;>3>-&2:>0>2O+",
"@@@X&@+++@%@#@O#@$@$@@+&&@+@@#+@@@$X=@o++@@@%#o@O#@@@@&++@@@@#+@",
"bzzkkj#o#kbcbbbckzbczj#+#jbcvzvjbbbbjj#+@jczbcbvbzkkkk=o#cccbbbc",
"tsssuub#jt5ttttttsstssj@vst5sssstspstuz@ctsttttstsssstg#kts3ttst",
"t8tt4t3o2u8t3p3ts83p4t2@2u8s3tttttpt5t2@2t9t3st338tt8st@2u9s2t2t",
"3t8tt82@832tttt8t8ttt23@t22tt8ttptt3t83@8328tttptt8t33tO932ts8st",
"t35t8t2@0ut85t288t8ttt8O884t8ttt3233232@2u2u382tp2s88t8O8t1u8tt2",
"38888y0o2388t8tt8yt2tt1O08u28y12ytu3tt0$8388t3t88t83tt1o1yt88828",
">>8;>2Oo&1;:23<8>>8:21$oO-2:88-&;:2>>0@+&2>>28>8::2>22$o#1>>>3;X",
".+@oO@+oo&$Oo@+@oOOo@O$Oo$oo@+$o&oo+o@+o+&++$oo%$ooo$OoOO$oOO++&"
};
